<?xml version="1.0" encoding="UTF-8" standalone="no"?>
<svg
   xmlns:svg="http://www.w3.org/2000/svg"
   xmlns="http://www.w3.org/2000/svg"
   version="1.0"
   width="350"
   height="180"
   id="Gram-Schmidt process">
  <defs
     id="defs3145">
    <marker
       markerUnits="strokeWidth"
       refX="0"
       refY="5"
       markerWidth="4"
       markerHeight="3"
       orient="auto"
       viewBox="0 0 10 10"
       id="ArrowEnd">
      <path
         d="M 0,0 L 10,5 L 0,10 L 0,0 z "
         id="path3148" />
    </marker>
    <marker
       markerUnits="strokeWidth"
       refX="10"
       refY="5"
       markerWidth="4"
       markerHeight="3"
       orient="auto"
       viewBox="0 0 10 10"
       id="ArrowStart">
      <path
         d="M 10,0 L 0,5 L 10,10 L 10,0 z "
         id="path3151" />
    </marker>
  </defs>
  <g
     transform="matrix(1.340265,0,0,1.340265,-101.8945,-4.636738)"
     id="g3153">
    <path
       d="M 0,721.988 L 0,721.988 L 0,721.988 z "
       style="fill:#000000;fill-rule:evenodd;stroke:none"
       id="path3155" />
    <path
       d="M 295.153,77.284 L 304.478,69.975 L 292.632,69.723 L 298.126,72.092"
       style="fill:#000000;fill-rule:evenodd;stroke:none"
       id="path3157" />
    <path
       d="M 134.4,126.668 L 298.127,72.092"
       style="fill:none;stroke:#000000;stroke-width:0.79701102"
       id="path3159" />
    <path
       d="M 242.714,23.99 L 247.786,13.282 L 237.078,18.354 L 243.052,18.016"
       style="fill:#000000;fill-rule:evenodd;stroke:none"
       id="path3161" />
    <path
       d="M 134.4,126.668 L 243.052,18.016"
       style="fill:none;stroke:#000000;stroke-width:0.79701102"
       id="path3163" />
    <path
       d="M 261.137,88.623 L 270.462,81.314 L 258.616,81.062 L 264.11,83.431"
       style="fill:#000000;fill-rule:evenodd;stroke:none"
       id="path3165" />
    <path
       d="M 134.4,126.668 L 264.111,83.431"
       style="fill:none;stroke:#000000;stroke-width:0.79701102"
       id="path3167" />
    <path
       d="M 119.032,67.962 L 111.723,58.637 L 111.471,70.483 L 113.84,64.989"
       style="fill:#000000;fill-rule:evenodd;stroke:none"
       id="path3169" />
    <path
       d="M 134.4,126.668 L 113.84,64.988"
       style="fill:none;stroke:#000000;stroke-width:0.79701102"
       id="path3171" />
    <path
       d="M 178.858,116.049 L 188.183,108.74 L 176.337,108.488 L 181.831,110.857"
       style="fill:#000000;fill-rule:evenodd;stroke:none"
       id="path3173" />
    <path
       d="M 134.4,126.668 L 181.832,110.858"
       style="fill:none;stroke:#000000;stroke-width:0.79701102"
       id="path3175" />
    <path
       d="M 123.781,82.21 L 116.472,72.8849 L 116.22,84.731 L 118.589,79.237"
       style="fill:#000000;fill-rule:evenodd;stroke:none"
       id="path3177" />
    <path
       d="M 134.4,126.668 L 118.589,79.236"
       style="fill:none;stroke:#000000;stroke-width:0.79701102"
       id="path3179" />
    <path
       d="M 247.786,13.282 L 270.463,81.313"
       style="fill:none;stroke:#000000;stroke-width:0.49813199;stroke-miterlimit:4;stroke-dasharray:5.97758399, 5.97758399;stroke-dashoffset:0"
       id="path3181" />
    <path
       d="M 247.786,13.282 L 111.723,58.636"
       style="fill:none;stroke:#000000;stroke-width:0.49813199;stroke-miterlimit:4;stroke-dasharray:5.97758399, 5.97758399;stroke-dashoffset:0"
       id="path3183" />
    <path
       d="M 315.7,80.14 L 315.7,81.388 L 318.503,81.292 L 318.503,80.588 C 317.515,80.588 317.4,80.539 317.4,79.917 L 317.4,74.088 L 314.486,74.216 L 314.486,74.988 C 315.474,74.988 315.565,74.992 315.565,75.613 L 315.565,78.658 C 315.565,79.965 314.76,80.788 313.609,80.788 C 312.383,80.788 312.3,80.396 312.3,79.55 L 312.3,74.087 L 309.417,74.215 L 309.417,74.987 C 310.405,74.987 310.5,74.991 310.5,75.612 L 310.5,79.326 C 310.5,81.032 311.798,81.387 313.385,81.387 C 313.799,81.387 314.947,81.383 315.68,80.139 L 315.7,80.14 z "
       style="fill:#000000;fill-rule:evenodd;stroke:none"
       id="path3185" />
    <path
       d="M 322.6,76.491 C 322.6,76.19 322.58,76.188 322.303,76.188 C 321.589,76.882 320.574,76.888 320.116,76.888 L 320.116,77.288 C 320.378,77.288 321.099,77.295 321.7,76.982 L 321.7,82.673 C 321.7,83.041 321.734,83.188 320.618,83.188 L 320.195,83.188 L 320.195,83.588 C 320.396,83.577 321.768,83.543 322.18,83.543 C 322.526,83.543 323.932,83.576 324.177,83.588 L 324.177,83.188 L 323.753,83.188 C 322.637,83.188 322.6,83.042 322.6,82.673 L 322.6,76.491 z "
       style="fill:#000000;fill-rule:evenodd;stroke:none"
       id="path3187" />
    <path
       d="M 316.466,62.294 C 316.558,62.071 316.619,61.888 317.6,61.888 L 317.6,61.212 C 317.216,61.244 316.77,61.237 316.386,61.237 C 315.984,61.237 315.259,61.198 314.921,61.189 L 314.921,61.889 C 315.23,61.889 315.686,61.956 315.686,62.1349 C 315.686,62.151 315.7,62.167 315.621,62.326 L 313.772,66.311 L 311.748,61.888 L 312.563,61.888 L 312.563,61.188 C 312.049,61.235 310.647,61.236 310.632,61.236 C 310.182,61.236 309.459,61.197 308.8,61.188 L 308.8,61.888 L 309.835,61.888 L 312.625,67.953 C 312.816,68.352 313.024,68.388 313.231,68.388 C 313.502,68.388 313.661,68.336 313.821,67.969 L 316.466,62.294 z "
       style="fill:#000000;fill-rule:evenodd;stroke:none"
       id="path3189" />
    <path
       d="M 321.7,63.491 C 321.7,63.19 321.68,63.188 321.403,63.188 C 320.689,63.882 319.674,63.888 319.216,63.888 L 319.216,64.288 C 319.478,64.288 320.199,64.295 320.8,63.982 L 320.8,69.673 C 320.8,70.041 320.834,70.188 319.719,70.188 L 319.295,70.188 L 319.295,70.588 C 319.496,70.577 320.868,70.543 321.281,70.543 C 321.626,70.543 323.032,70.576 323.277,70.588 L 323.277,70.188 L 322.854,70.188 C 321.738,70.188 321.7,70.042 321.7,69.673 L 321.7,63.491 z "
       style="fill:#000000;fill-rule:evenodd;stroke:none"
       id="path3191" />
    <path
       d="M 261.766,14.694 C 261.858,14.4709 261.919,14.288 262.9,14.288 L 262.9,13.612 C 262.516,13.644 262.07,13.636 261.686,13.636 C 261.284,13.636 260.559,13.598 260.221,13.589 L 260.221,14.289 C 260.53,14.289 260.986,14.355 260.986,14.535 C 260.986,14.551 261,14.567 260.921,14.726 L 259.072,18.711 L 257.048,14.288 L 257.863,14.288 L 257.863,13.588 C 257.349,13.6349 255.947,13.636 255.932,13.636 C 255.482,13.636 254.759,13.597 254.1,13.588 L 254.1,14.288 L 255.135,14.288 L 257.925,20.353 C 258.116,20.752 258.324,20.788 258.531,20.788 C 258.802,20.788 258.961,20.736 259.121,20.369 L 261.766,14.694 z "
       style="fill:#000000;fill-rule:evenodd;stroke:none"
       id="path3193" />
    <path
       d="M 268.935,20.957 L 268.556,20.957 C 268.523,21.202 268.411,21.861 268.266,21.972 C 268.177,22.039 267.318,22.087 267.161,22.087 L 265.108,22.087 C 266.28,21.022 266.67,20.702 267.34,20.164 C 268.166,19.506 268.901,18.814 268.901,17.754 C 268.901,16.404 267.734,15.587 266.325,15.587 C 264.941,15.587 264.001,16.553 264.001,17.575 C 264.001,18.144 264.483,18.187 264.595,18.187 C 264.863,18.187 265.201,18.002 265.201,17.6089 C 265.201,17.408 265.121,16.987 264.528,16.987 C 264.874,16.218 265.633,15.987 266.157,15.987 C 267.273,15.987 267.801,16.854 267.801,17.754 C 267.801,18.725 267.144,19.495 266.805,19.896 L 264.116,22.551 C 264.004,22.651 264.001,22.674 264.001,22.986 L 268.601,22.986 L 268.935,20.957 z "
       style="fill:#000000;fill-rule:evenodd;stroke:none"
       id="path3195" />
    <path
       d="M 246.7,97.3589 C 247.045,96.749 247.628,96.356 248.234,96.356 C 249.107,96.356 249.8,97.428 249.8,98.805 C 249.8,100.252 248.981,101.219 248.115,101.219 C 247.637,101.219 247.183,100.992 246.86,100.527 C 246.693,100.276 246.7,100.264 246.7,100.025 L 246.7,97.3589 z M 246.7,100.683 C 246.759,100.874 247.259,101.52 248.163,101.52 C 249.586,101.52 250.8,100.348 250.8,98.806 C 250.8,97.288 249.654,96.0569 248.33,96.0569 C 247.402,96.0569 246.902,96.615 246.664,96.893 L 246.664,96.104 L 244.935,96.236 L 244.935,96.5569 C 245.784,96.5569 245.9,96.6349 245.9,97.204 L 245.9,102.799 C 245.9,103.337 245.764,103.288 244.935,103.288 L 244.935,103.688 C 245.341,103.682 245.963,103.652 246.274,103.652 C 246.597,103.652 247.206,103.669 247.625,103.688 L 247.625,103.288 C 246.824,103.288 246.7,103.337 246.7,102.799 L 246.7,100.791 L 246.7,100.683 z "
       style="fill:#000000;fill-rule:evenodd;stroke:none"
       id="path3197" />
    <path
       d="M 253.4,100.456 L 253.4,98.615 C 253.4,97.431 253.887,96.357 254.767,96.357 C 254.851,96.357 254.875,96.367 254.898,96.379 C 254.862,96.391 254.599,96.534 254.599,96.845 C 254.599,97.18 254.862,97.3589 255.137,97.3589 C 255.352,97.3589 255.698,97.216 255.698,96.8329 C 255.698,96.45 255.308,96.056 254.766,96.056 C 253.919,96.056 253.502,96.886 253.339,97.418 L 253.339,96.103 L 251.634,96.235 L 251.634,96.556 C 252.471,96.556 252.599,96.646 252.599,97.275 L 252.599,100.479 C 252.599,101.017 252.463,100.988 251.634,100.988 L 251.634,101.387 C 252.1,101.375 252.662,101.352 252.997,101.352 C 253.475,101.352 254.037,101.352 254.515,101.387 L 254.515,100.988 L 254.264,100.988 C 253.379,100.988 253.399,100.863 253.399,100.455 L 253.4,100.456 z "
       style="fill:#000000;fill-rule:evenodd;stroke:none"
       id="path3199" />
    <path
       d="M 261.6,98.83 C 261.6,97.3 260.418,95.985 258.989,95.985 C 257.495,95.985 256.3,97.31 256.3,98.83 C 256.3,100.372 257.56,101.52 258.977,101.52 C 260.424,101.52 261.6,100.348 261.6,98.83 z M 258.989,101.22 C 258.475,101.22 257.949,100.969 257.626,100.42 C 257.327,99.894 257.3,99.165 257.3,98.735 C 257.3,98.269 257.327,97.623 257.614,97.097 C 257.937,96.547 258.499,96.2859 258.977,96.2859 C 259.503,96.2859 260.017,96.553 260.328,97.073 C 260.638,97.587 260.6,98.28 260.6,98.735 C 260.6,99.165 260.638,99.811 260.376,100.336 C 260.113,100.874 259.587,101.22 258.989,101.22 z "
       style="fill:#000000;fill-rule:evenodd;stroke:none"
       id="path3201" />
    <path
       d="M 265.3,96.104 L 263.493,96.236 L 263.493,96.5569 C 264.414,96.5569 264.5,96.647 264.5,97.276 L 264.5,102.01 C 264.5,102.548 264.395,103.519 263.649,103.519 C 263.589,103.519 263.314,103.575 263.003,103.421 C 263.182,103.373 263.4,103.206 263.4,102.883 C 263.4,102.572 263.193,102.289 262.872,102.289 C 262.537,102.289 262.3,102.547 262.3,102.883 C 262.3,103.505 262.98,103.82 263.673,103.82 C 264.57,103.82 265.3,103.063 265.3,101.986 L 265.3,96.104 z M 265.311,94.024 C 265.311,93.677 265.024,93.388 264.677,93.388 C 264.33,93.388 264,93.676 264,94.024 C 264,94.371 264.307,94.688 264.677,94.688 C 265.024,94.688 265.311,94.387 265.311,94.024 z "
       style="fill:#000000;fill-rule:evenodd;stroke:none"
       id="path3203" />
    <path
       d="M 269.698,100.455 L 269.698,100.888 C 270.192,100.888 270.2,100.958 270.2,101.284 L 270.2,102.832 C 270.2,103.527 269.691,103.888 269.087,103.888 C 268.367,103.888 268.4,103.693 268.4,103.267 L 268.4,100.388 L 266.737,100.455 L 266.737,100.888 C 267.23,100.888 267.301,100.957 267.301,101.284 L 267.301,103.175 C 267.301,104.145 268.227,104.287 268.945,104.287 C 269.209,104.287 269.802,104.238 270.259,103.644 L 270.259,104.287 L 271.883,104.238 L 271.883,103.72 C 271.389,103.72 271.301,103.72 271.301,103.394 L 271.301,100.389 L 269.698,100.455 z "
       style="fill:#000000;fill-rule:evenodd;stroke:none"
       id="path3205" />
    <path
       d="M 274.7,101.586 C 274.7,101.407 274.68,101.388 274.464,101.388 C 274.04,101.789 273.376,101.788 273.257,101.788 L 273.156,101.788 L 273.156,102.088 L 273.257,102.088 C 273.406,102.088 273.826,102.066 274.201,101.885 L 274.201,104.874 C 274.201,105.059 274.13,105.088 273.497,105.088 L 273.198,105.088 L 273.198,105.387 C 273.527,105.363 274.059,105.363 274.405,105.363 C 274.752,105.363 275.284,105.363 275.612,105.387 L 275.612,105.088 L 275.313,105.088 C 274.679,105.088 274.7,105.032 274.7,104.874 L 274.7,101.586 z "
       style="fill:#000000;fill-rule:evenodd;stroke:none"
       id="path3207" />
    <path
       d="M 283.549,96.893 C 283.618,96.726 283.664,96.688 284.4,96.688 L 284.4,96.08 C 284.112,96.104 283.778,96.124 283.49,96.124 C 283.188,96.124 282.645,96.103 282.391,96.088 L 282.391,96.688 C 282.622,96.688 282.965,96.711 282.965,96.7729 C 282.965,96.785 282.976,96.797 282.916,96.916 L 281.529,99.905 L 280.011,96.687 L 280.623,96.687 L 280.623,96.087 C 280.238,96.106 279.186,96.123 279.175,96.123 C 278.838,96.123 278.295,96.102 277.801,96.087 L 277.801,96.687 L 278.577,96.687 L 280.669,101.136 C 280.812,101.435 280.968,101.387 281.123,101.387 C 281.326,101.387 281.446,101.357 281.565,101.148 L 283.549,96.893 z "
       style="fill:#000000;fill-rule:evenodd;stroke:none"
       id="path3209" />
    <path
       d="M 288.926,101.565 L 288.641,101.565 C 288.616,101.749 288.532,102.243 288.423,102.327 C 288.356,102.377 287.712,102.389 287.595,102.389 L 286.055,102.389 C 286.934,101.604 287.227,101.368 287.729,100.972 C 288.348,100.478 288.9,99.959 288.9,99.164 C 288.9,98.151 288.025,97.489 286.968,97.489 C 285.93,97.489 285.2,98.238 285.2,99.03 C 285.2,99.457 285.582,99.489 285.671,99.489 C 285.872,99.489 286.1,99.35 286.1,99.055 C 286.1,98.904 286.043,98.589 285.622,98.589 C 285.88,98.012 286.449,97.79 286.844,97.79 C 287.68,97.79 288.101,98.464 288.101,99.165 C 288.101,99.892 287.593,100.47 287.329,100.771 L 285.312,102.763 C 285.229,102.838 285.202,102.855 285.202,103.089 L 288.677,103.089 L 288.926,101.565 z "
       style="fill:#000000;fill-rule:evenodd;stroke:none"
       id="path3211" />
    <path
       d="M 95.2998,63.74 L 95.2998,64.988 L 98.1028,64.892 L 98.1028,64.188 C 97.115,64.188 97,64.139 97,63.517 L 97,57.688 L 94.0862,57.816 L 94.0862,58.588 C 95.074,58.588 95.165,58.592 95.165,59.213 L 95.165,62.258 C 95.165,63.565 94.3601,64.388 93.2092,64.388 C 91.9824,64.388 91.8994,63.996 91.8994,63.15 L 91.8994,57.687 L 89.0166,57.815 L 89.0166,58.587 C 90.0044,58.587 90.0994,58.591 90.0994,59.212 L 90.0994,62.926 C 90.0994,64.632 91.3982,64.987 92.9854,64.987 C 93.3992,64.987 94.5471,64.983 95.2803,63.739 L 95.2998,63.74 z "
       style="fill:#000000;fill-rule:evenodd;stroke:none"
       id="path3213" />
    <path
       d="M 104.135,65.157 L 103.756,65.157 C 103.723,65.402 103.611,66.061 103.466,66.172 C 103.377,66.239 102.518,66.287 102.361,66.287 L 100.308,66.287 C 101.48,65.222 101.87,64.902 102.54,64.364 C 103.366,63.706 104.101,63.014 104.101,61.954 C 104.101,60.604 102.934,59.787 101.525,59.787 C 100.141,59.787 99.2009,60.753 99.2009,61.775 C 99.2009,62.344 99.6829,62.387 99.7949,62.387 C 100.063,62.387 100.401,62.202 100.401,61.809 C 100.401,61.608 100.321,61.187 99.728,61.187 C 100.074,60.418 100.833,60.187 101.357,60.187 C 102.473,60.187 103.001,61.054 103.001,61.954 C 103.001,62.925 102.344,63.6949 102.005,64.0959 L 99.3159,66.752 C 99.2041,66.852 99.2009,66.874 99.2009,67.186 L 103.801,67.186 L 104.135,65.157 z "
       style="fill:#000000;fill-rule:evenodd;stroke:none"
       id="path3215" />
    <path
       d="M 187.764,122.388 C 188.115,122.388 188.3,122.413 188.3,121.983 C 188.3,121.489 188.202,120.325 187.382,119.529 C 186.792,118.955 185.947,118.646 184.848,118.646 C 182.298,118.646 180.901,120.298 180.901,122.303 C 180.901,124.439 182.499,125.989 185.071,125.989 C 187.59,125.989 188.301,124.297 188.301,124.025 C 188.301,123.738 187.978,123.738 187.893,123.738 C 187.622,123.738 187.59,123.818 187.495,124.073 C 187.16,124.838 186.252,125.39 185.216,125.39 C 182.969,125.39 182.902,123.222 182.902,122.39 L 187.764,122.388 z M 182.9,121.888 C 182.936,121.266 182.954,120.596 183.333,120.07 C 183.747,119.432 184.385,119.245 184.847,119.245 C 186.712,119.245 186.744,121.331 186.76,121.888 L 182.9,121.888 z "
       style="fill:#000000;fill-rule:evenodd;stroke:none"
       id="path3217" />
    <path
       d="M 192.5,121.091 C 192.5,120.79 192.48,120.788 192.203,120.788 C 191.489,121.482 190.474,121.488 190.016,121.488 L 190.016,121.888 C 190.278,121.888 190.999,121.895 191.6,121.582 L 191.6,127.273 C 191.6,127.641 191.634,127.788 190.519,127.788 L 190.095,127.788 L 190.095,128.188 C 190.296,128.177 191.668,128.143 192.081,128.143 C 192.427,128.143 193.833,128.176 194.077,128.188 L 194.077,127.788 L 193.654,127.788 C 192.538,127.788 192.5,127.642 192.5,127.273 L 192.5,121.091 z "
       style="fill:#000000;fill-rule:evenodd;stroke:none"
       id="path3219" />
    <path
       d="M 103.264,79.888 C 103.615,79.888 103.8,79.913 103.8,79.483 C 103.8,78.989 103.702,77.825 102.882,77.029 C 102.292,76.455 101.447,76.146 100.348,76.146 C 97.7981,76.146 96.4011,77.798 96.4011,79.803 C 96.4011,81.939 97.999,83.489 100.571,83.489 C 103.09,83.489 103.801,81.797 103.801,81.525 C 103.801,81.238 103.478,81.238 103.393,81.238 C 103.122,81.238 103.09,81.318 102.995,81.573 C 102.66,82.338 101.752,82.89 100.716,82.89 C 98.4685,82.89 98.4023,80.722 98.4023,79.89 L 103.264,79.888 z M 98.3999,79.388 C 98.4358,78.766 98.4539,78.0959 98.8328,77.5699 C 99.2466,76.9319 99.8845,76.745 100.347,76.745 C 102.212,76.745 102.244,78.831 102.26,79.388 L 98.3999,79.388 z "
       style="fill:#000000;fill-rule:evenodd;stroke:none"
       id="path3221" />
    <path
       d="M 109.935,83.657 L 109.556,83.657 C 109.523,83.902 109.411,84.561 109.266,84.672 C 109.177,84.739 108.318,84.787 108.161,84.787 L 106.108,84.787 C 107.28,83.722 107.67,83.402 108.34,82.864 C 109.166,82.206 109.901,81.514 109.901,80.454 C 109.901,79.104 108.734,78.287 107.325,78.287 C 105.941,78.287 105.001,79.253 105.001,80.275 C 105.001,80.844 105.483,80.887 105.595,80.887 C 105.863,80.887 106.201,80.702 106.201,80.309 C 106.201,80.108 106.121,79.687 105.528,79.687 C 105.874,78.918 106.633,78.687 107.157,78.687 C 108.273,78.687 108.801,79.554 108.801,80.454 C 108.801,81.425 108.144,82.1949 107.805,82.5959 L 105.116,85.252 C 105.004,85.352 105.001,85.374 105.001,85.686 L 109.601,85.686 L 109.935,83.657 z "
       style="fill:#000000;fill-rule:evenodd;stroke:none"
       id="path3223" />
  </g>
</svg>
